<svg width="334" height="71" viewBox="0 0 334 71" fill="none" xmlns="http://www.w3.org/2000/svg">
<g filter="url(#filter0_d_2764_218)">
<path d="M14 50C14 51.1046 14.8954 52 16 52H23C24.1046 52 25 51.1046 25 50V32.4904C25 30.6237 27.3308 29.7747 28.5314 31.2041L45.4006 51.2864C45.7806 51.7388 46.3412 52 46.932 52H55C56.1046 52 57 51.1046 57 50V12C57 10.8954 56.1046 10 55 10H48C46.8954 10 46 10.8954 46 12V30.5401C46 32.4032 43.6767 33.2543 42.4732 31.832L24.5992 10.7081C24.2192 10.259 23.6607 10 23.0724 10H16C14.8954 10 14 10.8954 14 12V50Z" fill="white"/>
<path fill-rule="evenodd" clip-rule="evenodd" d="M64 52C62.8954 52 62 51.1046 62 50V12C62 10.8954 62.8954 10 64 10H103C104.105 10 105 10.8954 105 12V50C105 51.1046 104.105 52 103 52H64ZM73 20C71.8954 20 71 20.8954 71 22V40C71 41.1046 71.8954 42 73 42H93C94.1046 42 95 41.1046 95 40V22C95 20.8954 94.1046 20 93 20H73Z" fill="white"/>
<path d="M127 51C127 52.1046 127.895 53 129 53H136C137.105 53 138 52.1046 138 51V22C138 20.8954 138.895 20 140 20H153C154.105 20 155 19.1046 155 18V12C155 10.8954 154.105 10 153 10H112C110.895 10 110 10.8954 110 12V18C110 19.1046 110.895 20 112 20H125C126.105 20 127 20.8954 127 22V51Z" fill="white"/>
<path d="M162 52C160.895 52 160 51.1046 160 50V12C160 10.8954 160.895 10 162 10H168C169.105 10 170 10.8954 170 12V50C170 51.1046 169.105 52 168 52H162Z" fill="white"/>
<path d="M177 10C175.895 10 175 10.8954 175 12V50C175 51.1046 175.895 52 177 52H184C185.105 52 186 51.1046 186 50V37C186 35.8954 186.895 35 188 35H216C217.105 35 218 34.1046 218 33V29C218 27.8954 217.105 27 216 27H188C186.895 27 186 26.1046 186 25V22C186 20.8954 186.895 20 188 20H219C220.105 20 221 19.1046 221 18V12C221 10.8954 220.105 10 219 10H177Z" fill="white"/>
<path d="M287 31L271.427 48.6779C270.289 49.9697 271.206 52 272.927 52H282.647C283.192 52 283.713 51.7774 284.091 51.3838L295 40L287 31Z" fill="#00FF94"/>
<path d="M295 40L306.414 51.4142C306.789 51.7893 307.298 52 307.828 52H317.073C318.794 52 319.711 49.9697 318.573 48.6779L303 31L295 40Z" fill="#00FF94"/>
<path d="M303 31L318.573 13.3221C319.711 12.0303 318.794 10 317.073 10H306.408C305.831 10 305.282 10.249 304.902 10.683L295 22L303 31Z" fill="#00FF94"/>
<path fill-rule="evenodd" clip-rule="evenodd" d="M252 50C252 51.1046 251.105 52 250 52H243C241.895 52 241 51.1046 241 50V35.7214C241 35.2552 240.837 34.8036 240.54 34.4447L224.46 15.0553C224.163 14.6964 224 14.2448 224 13.7786V12C224 10.8954 224.895 10 226 10H234.019C234.638 10 235.222 10.2864 235.601 10.7757L245.385 23.4135C246.196 24.4611 247.783 24.4449 248.572 23.3808L257.9 10.8083C258.278 10.2998 258.873 10 259.506 10H270.5V13L252.469 34.4419C252.166 34.8024 252 35.2582 252 35.7291V50Z" fill="white"/>
<path d="M270.5 13L287 31L295 22L283.586 10.5858C283.211 10.2107 282.702 10 282.172 10H270.5V13Z" fill="#00FF94"/>
</g>
<defs>
<filter id="filter0_d_2764_218" x="0" y="0" width="333.077" height="71" filterUnits="userSpaceOnUse" color-interpolation-filters="sRGB">
<feFlood flood-opacity="0" result="BackgroundImageFix"/>
<feColorMatrix in="SourceAlpha" type="matrix" values="0 0 0 0 0 0 0 0 0 0 0 0 0 0 0 0 0 0 127 0" result="hardAlpha"/>
<feOffset dy="4"/>
<feGaussianBlur stdDeviation="7"/>
<feComposite in2="hardAlpha" operator="out"/>
<feColorMatrix type="matrix" values="0 0 0 0 0 0 0 0 0 0 0 0 0 0 0 0 0 0 0.25 0"/>
<feBlend mode="normal" in2="BackgroundImageFix" result="effect1_dropShadow_2764_218"/>
<feBlend mode="normal" in="SourceGraphic" in2="effect1_dropShadow_2764_218" result="shape"/>
</filter>
</defs>
</svg>

